<svg xmlns="http://www.w3.org/2000/svg" width="256" height="256" viewBox="0 0 100 100"><rect width="100" height="100" rx="50" fill="#7d6ee7"></rect><path d="M71.69 22.37L71.69 22.37Q72.32 23.36 72.81 24.98Q73.31 26.60 73.31 28.49L73.31 28.49Q73.31 31.91 71.82 33.44Q70.34 34.97 67.82 34.97L67.82 34.97L57.65 34.97L57.65 76.82Q56.66 77.09 54.59 77.36Q52.52 77.63 50.36 77.63L50.36 77.63Q45.59 77.63 43.75 76.01Q41.90 74.39 41.90 70.16L41.90 70.16L41.90 34.97L28.31 34.97Q27.68 33.98 27.18 32.36Q26.69 30.74 26.69 28.85L26.69 28.85Q26.69 25.43 28.18 23.90Q29.66 22.37 32.18 22.37L32.18 22.37L71.69 22.37Z" fill="#fff"></path></svg>